<mxfile host="app.diagrams.net" modified="2023-12-23T16:36:09.616Z" agent="Mozilla/5.0 (Windows NT 10.0; Win64; x64) AppleWebKit/537.36 (KHTML, like Gecko) Chrome/120.0.0.0 Safari/537.36" etag="V9RQs2tsFrs9pc-apuhz" version="22.1.11" type="github">
  <diagram id="C5RBs43oDa-KdzZeNtuy" name="Page-1">
    <mxGraphModel dx="1044" dy="518" grid="1" gridSize="10" guides="1" tooltips="1" connect="1" arrows="1" fold="1" page="1" pageScale="1" pageWidth="413" pageHeight="291" math="0" shadow="0">
      <root>
        <mxCell id="WIyWlLk6GJQsqaUBKTNV-0" />
        <mxCell id="WIyWlLk6GJQsqaUBKTNV-1" parent="WIyWlLk6GJQsqaUBKTNV-0" />
        <mxCell id="PbRjBfNZ1IPVbh-uNb9a-208" style="edgeStyle=orthogonalEdgeStyle;rounded=0;orthogonalLoop=1;jettySize=auto;html=1;entryX=0;entryY=0.5;entryDx=0;entryDy=0;" edge="1" parent="WIyWlLk6GJQsqaUBKTNV-1" source="ZHkyda2_ylCRjAt9gWxV-0" target="ZHkyda2_ylCRjAt9gWxV-3">
          <mxGeometry relative="1" as="geometry" />
        </mxCell>
        <mxCell id="ZHkyda2_ylCRjAt9gWxV-0" value="&lt;font style=&quot;font-size: 7px;&quot;&gt;Zena Services&lt;/font&gt;" style="rounded=0;whiteSpace=wrap;html=1;fontSize=7;" parent="WIyWlLk6GJQsqaUBKTNV-1" vertex="1">
          <mxGeometry x="121" y="263.75" width="80" height="15" as="geometry" />
        </mxCell>
        <mxCell id="PbRjBfNZ1IPVbh-uNb9a-209" style="edgeStyle=orthogonalEdgeStyle;rounded=0;orthogonalLoop=1;jettySize=auto;html=1;entryX=0;entryY=0.5;entryDx=0;entryDy=0;" edge="1" parent="WIyWlLk6GJQsqaUBKTNV-1" source="ZHkyda2_ylCRjAt9gWxV-1" target="ZHkyda2_ylCRjAt9gWxV-4">
          <mxGeometry relative="1" as="geometry">
            <Array as="points">
              <mxPoint x="270" y="292" />
              <mxPoint x="270" y="217" />
            </Array>
          </mxGeometry>
        </mxCell>
        <mxCell id="ZHkyda2_ylCRjAt9gWxV-1" value="&lt;font style=&quot;font-size: 7px;&quot;&gt;Nagios Services&lt;/font&gt;" style="rounded=0;whiteSpace=wrap;html=1;fontSize=7;" parent="WIyWlLk6GJQsqaUBKTNV-1" vertex="1">
          <mxGeometry x="121" y="284.25" width="80" height="15" as="geometry" />
        </mxCell>
        <mxCell id="PbRjBfNZ1IPVbh-uNb9a-10" value="" style="edgeStyle=orthogonalEdgeStyle;rounded=0;orthogonalLoop=1;jettySize=auto;html=1;entryX=0;entryY=0.5;entryDx=0;entryDy=0;exitX=1;exitY=0.5;exitDx=0;exitDy=0;fontSize=7;" edge="1" parent="WIyWlLk6GJQsqaUBKTNV-1" source="PbRjBfNZ1IPVbh-uNb9a-8" target="PbRjBfNZ1IPVbh-uNb9a-9">
          <mxGeometry relative="1" as="geometry" />
        </mxCell>
        <mxCell id="PbRjBfNZ1IPVbh-uNb9a-8" value="&lt;font style=&quot;font-size: 7px;&quot;&gt;Sources&lt;/font&gt;" style="rounded=0;whiteSpace=wrap;html=1;verticalAlign=middle;fontSize=7;" vertex="1" parent="WIyWlLk6GJQsqaUBKTNV-1">
          <mxGeometry x="30" y="90" width="60" height="150" as="geometry" />
        </mxCell>
        <mxCell id="PbRjBfNZ1IPVbh-uNb9a-9" value="&lt;font style=&quot;font-size: 7px;&quot;&gt;ODS&lt;br style=&quot;font-size: 7px;&quot;&gt;(Staging)&lt;/font&gt;" style="rounded=0;whiteSpace=wrap;html=1;fontSize=7;" vertex="1" parent="WIyWlLk6GJQsqaUBKTNV-1">
          <mxGeometry x="151" y="90" width="50" height="150" as="geometry" />
        </mxCell>
        <mxCell id="PbRjBfNZ1IPVbh-uNb9a-22" value="" style="group;fontSize=7;" vertex="1" connectable="0" parent="WIyWlLk6GJQsqaUBKTNV-1">
          <mxGeometry x="100" y="117.5" width="40" height="40" as="geometry" />
        </mxCell>
        <mxCell id="PbRjBfNZ1IPVbh-uNb9a-15" value="" style="outlineConnect=0;dashed=0;verticalLabelPosition=bottom;verticalAlign=top;align=center;html=1;shape=mxgraph.aws3.worker;fillColor=#D9A741;gradientColor=none;fontSize=7;" vertex="1" parent="PbRjBfNZ1IPVbh-uNb9a-22">
          <mxGeometry x="10" y="20" width="20" height="20" as="geometry" />
        </mxCell>
        <mxCell id="PbRjBfNZ1IPVbh-uNb9a-20" value="&lt;font style=&quot;font-size: 7px;&quot;&gt;FTP&lt;/font&gt;" style="text;html=1;strokeColor=none;fillColor=none;align=center;verticalAlign=middle;whiteSpace=wrap;rounded=0;fontSize=7;" vertex="1" parent="PbRjBfNZ1IPVbh-uNb9a-22">
          <mxGeometry width="40" height="20" as="geometry" />
        </mxCell>
        <mxCell id="PbRjBfNZ1IPVbh-uNb9a-25" value="" style="group;fontSize=7;" vertex="1" connectable="0" parent="WIyWlLk6GJQsqaUBKTNV-1">
          <mxGeometry x="260" y="106" width="40" height="40" as="geometry" />
        </mxCell>
        <mxCell id="PbRjBfNZ1IPVbh-uNb9a-26" value="" style="outlineConnect=0;dashed=0;verticalLabelPosition=bottom;verticalAlign=top;align=center;html=1;shape=mxgraph.aws3.worker;fillColor=#D9A741;gradientColor=none;fontSize=7;" vertex="1" parent="PbRjBfNZ1IPVbh-uNb9a-25">
          <mxGeometry x="10" y="20" width="20" height="20" as="geometry" />
        </mxCell>
        <mxCell id="PbRjBfNZ1IPVbh-uNb9a-27" value="&lt;font style=&quot;font-size: 7px;&quot;&gt;FTP&lt;/font&gt;" style="text;html=1;strokeColor=none;fillColor=none;align=center;verticalAlign=middle;whiteSpace=wrap;rounded=0;fontSize=7;" vertex="1" parent="PbRjBfNZ1IPVbh-uNb9a-25">
          <mxGeometry width="40" height="20" as="geometry" />
        </mxCell>
        <mxCell id="PbRjBfNZ1IPVbh-uNb9a-59" value="&lt;font style=&quot;font-size: 7px;&quot;&gt;To landing area in BDA&lt;/font&gt;" style="text;html=1;strokeColor=none;fillColor=none;align=center;verticalAlign=middle;whiteSpace=wrap;rounded=0;fontSize=7;" vertex="1" parent="WIyWlLk6GJQsqaUBKTNV-1">
          <mxGeometry x="230" y="90" width="100" height="10" as="geometry" />
        </mxCell>
        <mxCell id="PbRjBfNZ1IPVbh-uNb9a-90" value="User" style="shape=umlActor;verticalLabelPosition=bottom;verticalAlign=top;html=1;outlineConnect=0;fontSize=7;" vertex="1" parent="WIyWlLk6GJQsqaUBKTNV-1">
          <mxGeometry x="171" y="340" width="30" height="60" as="geometry" />
        </mxCell>
        <mxCell id="PbRjBfNZ1IPVbh-uNb9a-133" value="" style="group" vertex="1" connectable="0" parent="WIyWlLk6GJQsqaUBKTNV-1">
          <mxGeometry x="481" y="159" width="146" height="55" as="geometry" />
        </mxCell>
        <mxCell id="PbRjBfNZ1IPVbh-uNb9a-121" value="&lt;span style=&quot;font-size: 7px;&quot;&gt;Datanode&lt;/span&gt;" style="rounded=0;whiteSpace=wrap;html=1;verticalAlign=bottom;container=0;fontSize=7;" vertex="1" parent="PbRjBfNZ1IPVbh-uNb9a-133">
          <mxGeometry x="20" y="40" width="126" height="15" as="geometry" />
        </mxCell>
        <mxCell id="PbRjBfNZ1IPVbh-uNb9a-69" value="&lt;font style=&quot;font-size: 7px;&quot;&gt;&lt;font style=&quot;font-size: 7px;&quot;&gt;mbbbdaprdapp002&amp;nbsp;(172.31.243.12)&lt;/font&gt;&lt;br style=&quot;font-size: 7px;&quot;&gt;&lt;/font&gt;" style="rounded=0;whiteSpace=wrap;html=1;verticalAlign=top;fontSize=7;horizontal=1;container=0;" vertex="1" parent="PbRjBfNZ1IPVbh-uNb9a-133">
          <mxGeometry x="20" width="126" height="40" as="geometry" />
        </mxCell>
        <mxCell id="PbRjBfNZ1IPVbh-uNb9a-70" value="&lt;font style=&quot;font-size: 6px;&quot;&gt;Nagios Agent&lt;/font&gt;" style="rounded=0;whiteSpace=wrap;html=1;verticalAlign=middle;container=0;fontSize=6;horizontal=0;" vertex="1" parent="PbRjBfNZ1IPVbh-uNb9a-133">
          <mxGeometry width="20" height="55" as="geometry" />
        </mxCell>
        <mxCell id="PbRjBfNZ1IPVbh-uNb9a-89" value="&lt;font style=&quot;font-size: 7px;&quot;&gt;Namenode&lt;/font&gt;" style="rounded=0;whiteSpace=wrap;html=1;verticalAlign=bottom;container=0;fontSize=7;" vertex="1" parent="PbRjBfNZ1IPVbh-uNb9a-133">
          <mxGeometry x="20" y="25" width="126" height="15" as="geometry" />
        </mxCell>
        <mxCell id="PbRjBfNZ1IPVbh-uNb9a-135" value="" style="group" vertex="1" connectable="0" parent="WIyWlLk6GJQsqaUBKTNV-1">
          <mxGeometry x="481" y="90" width="146" height="65" as="geometry" />
        </mxCell>
        <mxCell id="PbRjBfNZ1IPVbh-uNb9a-66" value="&lt;font style=&quot;font-size: 7px;&quot;&gt;&lt;font style=&quot;font-size: 7px;&quot;&gt;mbbbdaprdapp001&amp;nbsp;(172.31.243.11)&lt;/font&gt;&lt;br style=&quot;font-size: 7px;&quot;&gt;&lt;/font&gt;" style="rounded=0;whiteSpace=wrap;html=1;verticalAlign=top;container=0;fontSize=7;" vertex="1" parent="PbRjBfNZ1IPVbh-uNb9a-135">
          <mxGeometry x="20" width="126" height="50" as="geometry" />
        </mxCell>
        <mxCell id="PbRjBfNZ1IPVbh-uNb9a-67" value="&lt;font style=&quot;font-size: 6px;&quot;&gt;Nagios Agent&lt;/font&gt;" style="rounded=0;whiteSpace=wrap;html=1;verticalAlign=middle;container=0;fontSize=6;horizontal=0;" vertex="1" parent="PbRjBfNZ1IPVbh-uNb9a-135">
          <mxGeometry width="20" height="65" as="geometry" />
        </mxCell>
        <mxCell id="PbRjBfNZ1IPVbh-uNb9a-86" value="Datanode" style="rounded=0;whiteSpace=wrap;html=1;verticalAlign=bottom;container=0;fontSize=7;" vertex="1" parent="PbRjBfNZ1IPVbh-uNb9a-135">
          <mxGeometry x="20" y="20" width="126" height="15" as="geometry" />
        </mxCell>
        <mxCell id="PbRjBfNZ1IPVbh-uNb9a-88" value="&lt;span style=&quot;font-size: 7px;&quot;&gt;Namenode&lt;/span&gt;" style="rounded=0;whiteSpace=wrap;html=1;verticalAlign=bottom;container=0;fontSize=7;" vertex="1" parent="PbRjBfNZ1IPVbh-uNb9a-135">
          <mxGeometry x="20" y="35" width="126" height="15" as="geometry" />
        </mxCell>
        <mxCell id="PbRjBfNZ1IPVbh-uNb9a-119" value="Hiveserver2 Proxy Server" style="rounded=0;whiteSpace=wrap;html=1;verticalAlign=bottom;container=0;fontSize=7;" vertex="1" parent="PbRjBfNZ1IPVbh-uNb9a-135">
          <mxGeometry x="20" y="50" width="126" height="15" as="geometry" />
        </mxCell>
        <mxCell id="PbRjBfNZ1IPVbh-uNb9a-150" value="" style="group" vertex="1" connectable="0" parent="WIyWlLk6GJQsqaUBKTNV-1">
          <mxGeometry x="481" y="223" width="146" height="80" as="geometry" />
        </mxCell>
        <mxCell id="PbRjBfNZ1IPVbh-uNb9a-136" value="&lt;span style=&quot;font-size: 7px;&quot;&gt;HUE Server&lt;/span&gt;" style="rounded=0;whiteSpace=wrap;html=1;verticalAlign=bottom;container=0;fontSize=7;" vertex="1" parent="PbRjBfNZ1IPVbh-uNb9a-150">
          <mxGeometry x="20" y="65" width="126" height="15" as="geometry" />
        </mxCell>
        <mxCell id="PbRjBfNZ1IPVbh-uNb9a-120" value="&lt;span style=&quot;font-size: 7px;&quot;&gt;Datanode&lt;/span&gt;" style="rounded=0;whiteSpace=wrap;html=1;verticalAlign=bottom;container=0;fontSize=7;" vertex="1" parent="PbRjBfNZ1IPVbh-uNb9a-150">
          <mxGeometry x="20" y="20" width="126" height="15" as="geometry" />
        </mxCell>
        <mxCell id="PbRjBfNZ1IPVbh-uNb9a-104" value="&lt;font style=&quot;font-size: 7px;&quot;&gt;&lt;font style=&quot;font-size: 7px;&quot;&gt;mbbbdaprdapp003&amp;nbsp;(172.31.243.13)&lt;/font&gt;&lt;br style=&quot;font-size: 7px;&quot;&gt;&lt;/font&gt;" style="rounded=0;whiteSpace=wrap;html=1;verticalAlign=top;fontSize=7;horizontal=1;container=0;" vertex="1" parent="PbRjBfNZ1IPVbh-uNb9a-150">
          <mxGeometry x="20" width="126" height="20" as="geometry" />
        </mxCell>
        <mxCell id="PbRjBfNZ1IPVbh-uNb9a-105" value="&lt;font style=&quot;font-size: 6px;&quot;&gt;Nagios Agent&lt;/font&gt;" style="rounded=0;whiteSpace=wrap;html=1;verticalAlign=middle;container=0;fontSize=6;horizontal=0;" vertex="1" parent="PbRjBfNZ1IPVbh-uNb9a-150">
          <mxGeometry width="20" height="80" as="geometry" />
        </mxCell>
        <mxCell id="PbRjBfNZ1IPVbh-uNb9a-106" value="&lt;font style=&quot;font-size: 7px;&quot;&gt;Resource Manager&lt;/font&gt;" style="rounded=0;whiteSpace=wrap;html=1;verticalAlign=bottom;container=0;fontSize=7;" vertex="1" parent="PbRjBfNZ1IPVbh-uNb9a-150">
          <mxGeometry x="20" y="35" width="126" height="15" as="geometry" />
        </mxCell>
        <mxCell id="PbRjBfNZ1IPVbh-uNb9a-149" value="&lt;font style=&quot;font-size: 7px;&quot;&gt;Nodemanager&lt;/font&gt;" style="rounded=0;whiteSpace=wrap;html=1;verticalAlign=bottom;container=0;fontSize=7;" vertex="1" parent="PbRjBfNZ1IPVbh-uNb9a-150">
          <mxGeometry x="20" y="50" width="126" height="15" as="geometry" />
        </mxCell>
        <mxCell id="PbRjBfNZ1IPVbh-uNb9a-151" value="" style="group" vertex="1" connectable="0" parent="WIyWlLk6GJQsqaUBKTNV-1">
          <mxGeometry x="481" y="312" width="146" height="80" as="geometry" />
        </mxCell>
        <mxCell id="PbRjBfNZ1IPVbh-uNb9a-152" value="&lt;span style=&quot;font-size: 7px;&quot;&gt;HUE Server&lt;/span&gt;" style="rounded=0;whiteSpace=wrap;html=1;verticalAlign=bottom;container=0;fontSize=7;" vertex="1" parent="PbRjBfNZ1IPVbh-uNb9a-151">
          <mxGeometry x="20" y="65" width="126" height="15" as="geometry" />
        </mxCell>
        <mxCell id="PbRjBfNZ1IPVbh-uNb9a-153" value="&lt;span style=&quot;font-size: 7px;&quot;&gt;Datanode&lt;/span&gt;" style="rounded=0;whiteSpace=wrap;html=1;verticalAlign=bottom;container=0;fontSize=7;" vertex="1" parent="PbRjBfNZ1IPVbh-uNb9a-151">
          <mxGeometry x="20" y="20" width="126" height="15" as="geometry" />
        </mxCell>
        <mxCell id="PbRjBfNZ1IPVbh-uNb9a-154" value="&lt;font style=&quot;font-size: 7px;&quot;&gt;&lt;font style=&quot;font-size: 7px;&quot;&gt;mbbbdaprdapp004&amp;nbsp;(172.31.243.14)&lt;/font&gt;&lt;br style=&quot;font-size: 7px;&quot;&gt;&lt;/font&gt;" style="rounded=0;whiteSpace=wrap;html=1;verticalAlign=top;fontSize=7;horizontal=1;container=0;" vertex="1" parent="PbRjBfNZ1IPVbh-uNb9a-151">
          <mxGeometry x="20" width="126" height="20" as="geometry" />
        </mxCell>
        <mxCell id="PbRjBfNZ1IPVbh-uNb9a-155" value="&lt;font style=&quot;font-size: 6px;&quot;&gt;Nagios Agent&lt;/font&gt;" style="rounded=0;whiteSpace=wrap;html=1;verticalAlign=middle;container=0;fontSize=6;horizontal=0;" vertex="1" parent="PbRjBfNZ1IPVbh-uNb9a-151">
          <mxGeometry width="20" height="80" as="geometry" />
        </mxCell>
        <mxCell id="PbRjBfNZ1IPVbh-uNb9a-156" value="&lt;font style=&quot;font-size: 7px;&quot;&gt;Resource Manager&lt;/font&gt;" style="rounded=0;whiteSpace=wrap;html=1;verticalAlign=bottom;container=0;fontSize=7;" vertex="1" parent="PbRjBfNZ1IPVbh-uNb9a-151">
          <mxGeometry x="20" y="35" width="126" height="15" as="geometry" />
        </mxCell>
        <mxCell id="PbRjBfNZ1IPVbh-uNb9a-157" value="&lt;font style=&quot;font-size: 7px;&quot;&gt;Nodemanager&lt;/font&gt;" style="rounded=0;whiteSpace=wrap;html=1;verticalAlign=bottom;container=0;fontSize=7;" vertex="1" parent="PbRjBfNZ1IPVbh-uNb9a-151">
          <mxGeometry x="20" y="50" width="126" height="15" as="geometry" />
        </mxCell>
        <mxCell id="PbRjBfNZ1IPVbh-uNb9a-158" value="" style="group" vertex="1" connectable="0" parent="WIyWlLk6GJQsqaUBKTNV-1">
          <mxGeometry x="481" y="400" width="146" height="95.75" as="geometry" />
        </mxCell>
        <mxCell id="PbRjBfNZ1IPVbh-uNb9a-139" value="&lt;span style=&quot;font-size: 7px;&quot;&gt;HUE Server&lt;/span&gt;" style="rounded=0;whiteSpace=wrap;html=1;verticalAlign=bottom;container=0;fontSize=7;" vertex="1" parent="PbRjBfNZ1IPVbh-uNb9a-158">
          <mxGeometry x="20" y="80.25" width="126" height="15" as="geometry" />
        </mxCell>
        <mxCell id="PbRjBfNZ1IPVbh-uNb9a-130" value="&lt;span style=&quot;font-size: 7px;&quot;&gt;Hiveserver2&lt;/span&gt;" style="rounded=0;whiteSpace=wrap;html=1;verticalAlign=bottom;container=0;fontSize=7;" vertex="1" parent="PbRjBfNZ1IPVbh-uNb9a-158">
          <mxGeometry x="20" y="50" width="126" height="15" as="geometry" />
        </mxCell>
        <mxCell id="PbRjBfNZ1IPVbh-uNb9a-118" value="&lt;span style=&quot;font-size: 7px;&quot;&gt;HUE Load Balancer&lt;/span&gt;" style="rounded=0;whiteSpace=wrap;html=1;verticalAlign=bottom;container=0;fontSize=7;" vertex="1" parent="PbRjBfNZ1IPVbh-uNb9a-158">
          <mxGeometry x="20" y="65" width="126" height="15" as="geometry" />
        </mxCell>
        <mxCell id="PbRjBfNZ1IPVbh-uNb9a-124" value="&lt;span style=&quot;font-size: 7px;&quot;&gt;Datanode&lt;/span&gt;" style="rounded=0;whiteSpace=wrap;html=1;verticalAlign=bottom;container=0;fontSize=7;" vertex="1" parent="PbRjBfNZ1IPVbh-uNb9a-158">
          <mxGeometry x="20" y="20" width="126" height="15" as="geometry" />
        </mxCell>
        <mxCell id="PbRjBfNZ1IPVbh-uNb9a-112" value="&lt;font style=&quot;font-size: 7px;&quot;&gt;&lt;font style=&quot;font-size: 7px;&quot;&gt;mbbbdaprdapp005&amp;nbsp;(172.31.243.15)&lt;/font&gt;&lt;br style=&quot;font-size: 7px;&quot;&gt;&lt;/font&gt;" style="rounded=0;whiteSpace=wrap;html=1;verticalAlign=top;fontSize=7;horizontal=1;container=0;" vertex="1" parent="PbRjBfNZ1IPVbh-uNb9a-158">
          <mxGeometry x="20" width="126" height="20" as="geometry" />
        </mxCell>
        <mxCell id="PbRjBfNZ1IPVbh-uNb9a-113" value="&lt;font style=&quot;font-size: 6px;&quot;&gt;Nagios Agent&lt;/font&gt;" style="rounded=0;whiteSpace=wrap;html=1;verticalAlign=middle;container=0;fontSize=6;horizontal=0;" vertex="1" parent="PbRjBfNZ1IPVbh-uNb9a-158">
          <mxGeometry width="20" height="95.75" as="geometry" />
        </mxCell>
        <mxCell id="PbRjBfNZ1IPVbh-uNb9a-114" value="&lt;font style=&quot;font-size: 7px;&quot;&gt;Nodemanager&lt;/font&gt;" style="rounded=0;whiteSpace=wrap;html=1;verticalAlign=bottom;container=0;fontSize=7;" vertex="1" parent="PbRjBfNZ1IPVbh-uNb9a-158">
          <mxGeometry x="20" y="35" width="126" height="15" as="geometry" />
        </mxCell>
        <mxCell id="PbRjBfNZ1IPVbh-uNb9a-183" value="" style="group" vertex="1" connectable="0" parent="WIyWlLk6GJQsqaUBKTNV-1">
          <mxGeometry x="641" y="91" width="126" height="67" as="geometry" />
        </mxCell>
        <mxCell id="PbRjBfNZ1IPVbh-uNb9a-162" value="&lt;span style=&quot;font-size: 7px;&quot;&gt;Hiveserver2&lt;/span&gt;" style="rounded=0;whiteSpace=wrap;html=1;verticalAlign=bottom;container=0;fontSize=7;" vertex="1" parent="PbRjBfNZ1IPVbh-uNb9a-183">
          <mxGeometry y="50" width="126" height="17" as="geometry" />
        </mxCell>
        <mxCell id="PbRjBfNZ1IPVbh-uNb9a-164" value="&lt;span style=&quot;font-size: 7px;&quot;&gt;Datanode&lt;/span&gt;" style="rounded=0;whiteSpace=wrap;html=1;verticalAlign=bottom;container=0;fontSize=7;" vertex="1" parent="PbRjBfNZ1IPVbh-uNb9a-183">
          <mxGeometry y="20" width="126" height="17" as="geometry" />
        </mxCell>
        <mxCell id="PbRjBfNZ1IPVbh-uNb9a-165" value="&lt;font style=&quot;font-size: 7px;&quot;&gt;&lt;font style=&quot;font-size: 7px;&quot;&gt;mbbbdaprdapp013 (172.31.243.17)&lt;/font&gt;&lt;br style=&quot;font-size: 7px;&quot;&gt;&lt;/font&gt;" style="rounded=0;whiteSpace=wrap;html=1;verticalAlign=top;fontSize=7;horizontal=1;container=0;" vertex="1" parent="PbRjBfNZ1IPVbh-uNb9a-183">
          <mxGeometry width="126" height="22" as="geometry" />
        </mxCell>
        <mxCell id="PbRjBfNZ1IPVbh-uNb9a-167" value="&lt;font style=&quot;font-size: 7px;&quot;&gt;Nodemanager&lt;/font&gt;" style="rounded=0;whiteSpace=wrap;html=1;verticalAlign=bottom;container=0;fontSize=7;" vertex="1" parent="PbRjBfNZ1IPVbh-uNb9a-183">
          <mxGeometry y="35" width="126" height="17" as="geometry" />
        </mxCell>
        <mxCell id="PbRjBfNZ1IPVbh-uNb9a-184" value="" style="group" vertex="1" connectable="0" parent="WIyWlLk6GJQsqaUBKTNV-1">
          <mxGeometry x="641" y="162" width="126" height="67" as="geometry" />
        </mxCell>
        <mxCell id="PbRjBfNZ1IPVbh-uNb9a-171" value="&lt;span style=&quot;font-size: 7px;&quot;&gt;Hiveserver2&lt;/span&gt;" style="rounded=0;whiteSpace=wrap;html=1;verticalAlign=bottom;container=0;fontSize=7;" vertex="1" parent="PbRjBfNZ1IPVbh-uNb9a-184">
          <mxGeometry y="50" width="126" height="17" as="geometry" />
        </mxCell>
        <mxCell id="PbRjBfNZ1IPVbh-uNb9a-172" value="&lt;span style=&quot;font-size: 7px;&quot;&gt;Datanode&lt;/span&gt;" style="rounded=0;whiteSpace=wrap;html=1;verticalAlign=bottom;container=0;fontSize=7;" vertex="1" parent="PbRjBfNZ1IPVbh-uNb9a-184">
          <mxGeometry y="20" width="126" height="17" as="geometry" />
        </mxCell>
        <mxCell id="PbRjBfNZ1IPVbh-uNb9a-173" value="&lt;font style=&quot;font-size: 7px;&quot;&gt;&lt;font style=&quot;font-size: 7px;&quot;&gt;mbbbdaprdapp014 (172.31.243.18)&lt;/font&gt;&lt;br style=&quot;font-size: 7px;&quot;&gt;&lt;/font&gt;" style="rounded=0;whiteSpace=wrap;html=1;verticalAlign=top;fontSize=7;horizontal=1;container=0;" vertex="1" parent="PbRjBfNZ1IPVbh-uNb9a-184">
          <mxGeometry width="126" height="22" as="geometry" />
        </mxCell>
        <mxCell id="PbRjBfNZ1IPVbh-uNb9a-175" value="&lt;font style=&quot;font-size: 7px;&quot;&gt;Nodemanager&lt;/font&gt;" style="rounded=0;whiteSpace=wrap;html=1;verticalAlign=bottom;container=0;fontSize=7;" vertex="1" parent="PbRjBfNZ1IPVbh-uNb9a-184">
          <mxGeometry y="35" width="126" height="17" as="geometry" />
        </mxCell>
        <mxCell id="PbRjBfNZ1IPVbh-uNb9a-185" value="" style="group" vertex="1" connectable="0" parent="WIyWlLk6GJQsqaUBKTNV-1">
          <mxGeometry x="641" y="233" width="126" height="67" as="geometry" />
        </mxCell>
        <mxCell id="PbRjBfNZ1IPVbh-uNb9a-178" value="&lt;span style=&quot;font-size: 7px;&quot;&gt;Hiveserver2&lt;/span&gt;" style="rounded=0;whiteSpace=wrap;html=1;verticalAlign=bottom;container=0;fontSize=7;" vertex="1" parent="PbRjBfNZ1IPVbh-uNb9a-185">
          <mxGeometry y="50" width="126" height="17" as="geometry" />
        </mxCell>
        <mxCell id="PbRjBfNZ1IPVbh-uNb9a-179" value="&lt;span style=&quot;font-size: 7px;&quot;&gt;Datanode&lt;/span&gt;" style="rounded=0;whiteSpace=wrap;html=1;verticalAlign=bottom;container=0;fontSize=7;" vertex="1" parent="PbRjBfNZ1IPVbh-uNb9a-185">
          <mxGeometry y="20" width="126" height="17" as="geometry" />
        </mxCell>
        <mxCell id="PbRjBfNZ1IPVbh-uNb9a-180" value="&lt;font style=&quot;font-size: 7px;&quot;&gt;&lt;font style=&quot;font-size: 7px;&quot;&gt;mbbbdaprdapp015 (172.31.243.19)&lt;/font&gt;&lt;br style=&quot;font-size: 7px;&quot;&gt;&lt;/font&gt;" style="rounded=0;whiteSpace=wrap;html=1;verticalAlign=top;fontSize=7;horizontal=1;container=0;" vertex="1" parent="PbRjBfNZ1IPVbh-uNb9a-185">
          <mxGeometry width="126" height="22" as="geometry" />
        </mxCell>
        <mxCell id="PbRjBfNZ1IPVbh-uNb9a-181" value="&lt;font style=&quot;font-size: 7px;&quot;&gt;Nodemanager&lt;/font&gt;" style="rounded=0;whiteSpace=wrap;html=1;verticalAlign=bottom;container=0;fontSize=7;" vertex="1" parent="PbRjBfNZ1IPVbh-uNb9a-185">
          <mxGeometry y="35" width="126" height="17" as="geometry" />
        </mxCell>
        <mxCell id="PbRjBfNZ1IPVbh-uNb9a-186" value="" style="group" vertex="1" connectable="0" parent="WIyWlLk6GJQsqaUBKTNV-1">
          <mxGeometry x="641" y="303" width="126" height="67" as="geometry" />
        </mxCell>
        <mxCell id="PbRjBfNZ1IPVbh-uNb9a-187" value="&lt;span style=&quot;font-size: 7px;&quot;&gt;Hiveserver2&lt;/span&gt;" style="rounded=0;whiteSpace=wrap;html=1;verticalAlign=bottom;container=0;fontSize=7;" vertex="1" parent="PbRjBfNZ1IPVbh-uNb9a-186">
          <mxGeometry y="50" width="126" height="17" as="geometry" />
        </mxCell>
        <mxCell id="PbRjBfNZ1IPVbh-uNb9a-188" value="&lt;span style=&quot;font-size: 7px;&quot;&gt;Datanode&lt;/span&gt;" style="rounded=0;whiteSpace=wrap;html=1;verticalAlign=bottom;container=0;fontSize=7;" vertex="1" parent="PbRjBfNZ1IPVbh-uNb9a-186">
          <mxGeometry y="20" width="126" height="17" as="geometry" />
        </mxCell>
        <mxCell id="PbRjBfNZ1IPVbh-uNb9a-189" value="&lt;font style=&quot;font-size: 7px;&quot;&gt;&lt;font style=&quot;font-size: 7px;&quot;&gt;mbbbdaprdapp016 (172.31.243.20)&lt;/font&gt;&lt;br style=&quot;font-size: 7px;&quot;&gt;&lt;/font&gt;" style="rounded=0;whiteSpace=wrap;html=1;verticalAlign=top;fontSize=7;horizontal=1;container=0;" vertex="1" parent="PbRjBfNZ1IPVbh-uNb9a-186">
          <mxGeometry width="126" height="22" as="geometry" />
        </mxCell>
        <mxCell id="PbRjBfNZ1IPVbh-uNb9a-190" value="&lt;font style=&quot;font-size: 7px;&quot;&gt;Nodemanager&lt;/font&gt;" style="rounded=0;whiteSpace=wrap;html=1;verticalAlign=bottom;container=0;fontSize=7;" vertex="1" parent="PbRjBfNZ1IPVbh-uNb9a-186">
          <mxGeometry y="35" width="126" height="17" as="geometry" />
        </mxCell>
        <mxCell id="PbRjBfNZ1IPVbh-uNb9a-193" value="" style="group" vertex="1" connectable="0" parent="WIyWlLk6GJQsqaUBKTNV-1">
          <mxGeometry x="641" y="374" width="126" height="65" as="geometry" />
        </mxCell>
        <mxCell id="PbRjBfNZ1IPVbh-uNb9a-195" value="&lt;span style=&quot;font-size: 7px;&quot;&gt;Datanode&lt;/span&gt;" style="rounded=0;whiteSpace=wrap;html=1;verticalAlign=bottom;container=0;fontSize=7;" vertex="1" parent="PbRjBfNZ1IPVbh-uNb9a-193">
          <mxGeometry y="20" width="126" height="15" as="geometry" />
        </mxCell>
        <mxCell id="PbRjBfNZ1IPVbh-uNb9a-196" value="&lt;font style=&quot;font-size: 7px;&quot;&gt;&lt;font style=&quot;font-size: 7px;&quot;&gt;mbbbdaprdapp017 (172.31.243.21)&lt;/font&gt;&lt;br style=&quot;font-size: 7px;&quot;&gt;&lt;/font&gt;" style="rounded=0;whiteSpace=wrap;html=1;verticalAlign=top;fontSize=7;horizontal=1;container=0;" vertex="1" parent="PbRjBfNZ1IPVbh-uNb9a-193">
          <mxGeometry width="126" height="20" as="geometry" />
        </mxCell>
        <mxCell id="PbRjBfNZ1IPVbh-uNb9a-197" value="&lt;font style=&quot;font-size: 7px;&quot;&gt;Nodemanager&lt;/font&gt;" style="rounded=0;whiteSpace=wrap;html=1;verticalAlign=bottom;container=0;fontSize=7;" vertex="1" parent="PbRjBfNZ1IPVbh-uNb9a-193">
          <mxGeometry y="35" width="126" height="15" as="geometry" />
        </mxCell>
        <mxCell id="PbRjBfNZ1IPVbh-uNb9a-198" value="" style="group" vertex="1" connectable="0" parent="WIyWlLk6GJQsqaUBKTNV-1">
          <mxGeometry x="641" y="433" width="126" height="65" as="geometry" />
        </mxCell>
        <mxCell id="PbRjBfNZ1IPVbh-uNb9a-200" value="&lt;span style=&quot;font-size: 7px;&quot;&gt;Datanode&lt;/span&gt;" style="rounded=0;whiteSpace=wrap;html=1;verticalAlign=bottom;container=0;fontSize=7;" vertex="1" parent="PbRjBfNZ1IPVbh-uNb9a-198">
          <mxGeometry y="20" width="126" height="15" as="geometry" />
        </mxCell>
        <mxCell id="PbRjBfNZ1IPVbh-uNb9a-201" value="&lt;font style=&quot;font-size: 7px;&quot;&gt;&lt;font style=&quot;font-size: 7px;&quot;&gt;mbbbdaprdapp018 (172.31.243.22)&lt;/font&gt;&lt;br style=&quot;font-size: 7px;&quot;&gt;&lt;/font&gt;" style="rounded=0;whiteSpace=wrap;html=1;verticalAlign=top;fontSize=7;horizontal=1;container=0;" vertex="1" parent="PbRjBfNZ1IPVbh-uNb9a-198">
          <mxGeometry width="126" height="20" as="geometry" />
        </mxCell>
        <mxCell id="PbRjBfNZ1IPVbh-uNb9a-202" value="&lt;font style=&quot;font-size: 7px;&quot;&gt;Nodemanager&lt;/font&gt;" style="rounded=0;whiteSpace=wrap;html=1;verticalAlign=bottom;container=0;fontSize=7;" vertex="1" parent="PbRjBfNZ1IPVbh-uNb9a-198">
          <mxGeometry y="35" width="126" height="15" as="geometry" />
        </mxCell>
        <mxCell id="PbRjBfNZ1IPVbh-uNb9a-207" style="edgeStyle=orthogonalEdgeStyle;rounded=0;orthogonalLoop=1;jettySize=auto;html=1;entryX=0.01;entryY=0.095;entryDx=0;entryDy=0;entryPerimeter=0;" edge="1" parent="WIyWlLk6GJQsqaUBKTNV-1" source="PbRjBfNZ1IPVbh-uNb9a-9" target="ZHkyda2_ylCRjAt9gWxV-2">
          <mxGeometry relative="1" as="geometry">
            <Array as="points">
              <mxPoint x="230" y="165" />
              <mxPoint x="230" y="105" />
            </Array>
          </mxGeometry>
        </mxCell>
        <mxCell id="ZHkyda2_ylCRjAt9gWxV-2" value="&lt;font style=&quot;font-size: 7px;&quot;&gt;mbbbdaprdapp006&amp;nbsp;(172.31.243.16)&lt;/font&gt;" style="rounded=0;whiteSpace=wrap;html=1;imageVerticalAlign=top;verticalAlign=top;container=0;fontSize=7;" parent="WIyWlLk6GJQsqaUBKTNV-1" vertex="1">
          <mxGeometry x="340" y="90.5" width="126" height="150" as="geometry" />
        </mxCell>
        <mxCell id="ZHkyda2_ylCRjAt9gWxV-3" value="&lt;font style=&quot;font-size: 6px;&quot;&gt;Zena Agent&lt;/font&gt;" style="rounded=0;whiteSpace=wrap;html=1;verticalAlign=middle;container=0;fontSize=7;horizontal=0;" parent="WIyWlLk6GJQsqaUBKTNV-1" vertex="1">
          <mxGeometry x="320" y="155.5" width="20" height="37.5" as="geometry" />
        </mxCell>
        <mxCell id="ZHkyda2_ylCRjAt9gWxV-4" value="&lt;font style=&quot;font-size: 6px;&quot;&gt;Nagios Agent&lt;/font&gt;" style="rounded=0;whiteSpace=wrap;html=1;verticalAlign=middle;container=0;fontSize=7;horizontal=0;" parent="WIyWlLk6GJQsqaUBKTNV-1" vertex="1">
          <mxGeometry x="320" y="193" width="20" height="47.5" as="geometry" />
        </mxCell>
        <mxCell id="ZHkyda2_ylCRjAt9gWxV-5" value="&lt;font style=&quot;font-size: 6px;&quot;&gt;ODI Agent&lt;/font&gt;" style="rounded=0;html=1;verticalAlign=middle;container=0;fontSize=7;horizontal=0;" parent="WIyWlLk6GJQsqaUBKTNV-1" vertex="1">
          <mxGeometry x="320" y="115.5" width="20" height="40" as="geometry" />
        </mxCell>
        <mxCell id="PbRjBfNZ1IPVbh-uNb9a-76" value="&lt;span style=&quot;font-size: 7px;&quot;&gt;Bash Script (KSH)&lt;/span&gt;" style="rounded=0;whiteSpace=wrap;html=1;verticalAlign=bottom;container=0;fontSize=7;" vertex="1" parent="WIyWlLk6GJQsqaUBKTNV-1">
          <mxGeometry x="340" y="180.5" width="126" height="15" as="geometry" />
        </mxCell>
        <mxCell id="PbRjBfNZ1IPVbh-uNb9a-85" value="&lt;span style=&quot;font-size: 7px;&quot;&gt;Hiveserver2&lt;br&gt;&lt;/span&gt;" style="rounded=0;whiteSpace=wrap;html=1;verticalAlign=bottom;container=0;fontSize=7;" vertex="1" parent="WIyWlLk6GJQsqaUBKTNV-1">
          <mxGeometry x="340" y="165.5" width="126" height="15" as="geometry" />
        </mxCell>
        <mxCell id="PbRjBfNZ1IPVbh-uNb9a-91" value="&lt;span style=&quot;font-size: 7px;&quot;&gt;HUE Load Balancer&lt;/span&gt;" style="rounded=0;whiteSpace=wrap;html=1;verticalAlign=bottom;container=0;fontSize=7;" vertex="1" parent="WIyWlLk6GJQsqaUBKTNV-1">
          <mxGeometry x="340" y="225.5" width="126" height="15" as="geometry" />
        </mxCell>
        <mxCell id="PbRjBfNZ1IPVbh-uNb9a-92" value="&lt;span style=&quot;font-size: 7px;&quot;&gt;Node Manager&lt;/span&gt;" style="rounded=0;whiteSpace=wrap;html=1;verticalAlign=bottom;container=0;fontSize=7;" vertex="1" parent="WIyWlLk6GJQsqaUBKTNV-1">
          <mxGeometry x="340" y="195.5" width="126" height="15" as="geometry" />
        </mxCell>
        <mxCell id="PbRjBfNZ1IPVbh-uNb9a-123" value="&lt;span style=&quot;font-size: 7px;&quot;&gt;Datanode&lt;/span&gt;" style="rounded=0;whiteSpace=wrap;html=1;verticalAlign=bottom;container=0;fontSize=7;" vertex="1" parent="WIyWlLk6GJQsqaUBKTNV-1">
          <mxGeometry x="340" y="210.5" width="126" height="15" as="geometry" />
        </mxCell>
        <mxCell id="PbRjBfNZ1IPVbh-uNb9a-210" style="edgeStyle=orthogonalEdgeStyle;rounded=0;orthogonalLoop=1;jettySize=auto;html=1;entryX=0.476;entryY=0.967;entryDx=0;entryDy=0;entryPerimeter=0;" edge="1" parent="WIyWlLk6GJQsqaUBKTNV-1" source="PbRjBfNZ1IPVbh-uNb9a-90" target="PbRjBfNZ1IPVbh-uNb9a-91">
          <mxGeometry relative="1" as="geometry">
            <Array as="points">
              <mxPoint x="400" y="370" />
            </Array>
          </mxGeometry>
        </mxCell>
        <mxCell id="PbRjBfNZ1IPVbh-uNb9a-211" style="edgeStyle=orthogonalEdgeStyle;rounded=0;orthogonalLoop=1;jettySize=auto;html=1;entryX=0;entryY=0.5;entryDx=0;entryDy=0;exitX=1;exitY=1;exitDx=0;exitDy=0;exitPerimeter=0;" edge="1" parent="WIyWlLk6GJQsqaUBKTNV-1" source="PbRjBfNZ1IPVbh-uNb9a-90" target="PbRjBfNZ1IPVbh-uNb9a-118">
          <mxGeometry relative="1" as="geometry" />
        </mxCell>
      </root>
    </mxGraphModel>
  </diagram>
</mxfile>
